<?xml version="1.0" encoding="UTF-8" standalone="no"?>
<!-- Created with Inkscape (http://www.inkscape.org/) -->

<svg
   width="210mm"
   height="297mm"
   viewBox="0 0 210 297"
   version="1.1"
   id="svg1455"
   inkscape:version="1.1 (c4e8f9e, 2021-05-24)"
   sodipodi:docname="ornament01.svg"
   xmlns:inkscape="http://www.inkscape.org/namespaces/inkscape"
   xmlns:sodipodi="http://sodipodi.sourceforge.net/DTD/sodipodi-0.dtd"
   xmlns="http://www.w3.org/2000/svg"
   xmlns:svg="http://www.w3.org/2000/svg">
  <sodipodi:namedview
     id="namedview1457"
     pagecolor="#ffffff"
     bordercolor="#666666"
     borderopacity="1.0"
     inkscape:pageshadow="2"
     inkscape:pageopacity="0.0"
     inkscape:pagecheckerboard="0"
     inkscape:document-units="mm"
     showgrid="false"
     inkscape:zoom="0.57905443"
     inkscape:cx="396.3358"
     inkscape:cy="561.25984"
     inkscape:window-width="1600"
     inkscape:window-height="832"
     inkscape:window-x="0"
     inkscape:window-y="0"
     inkscape:window-maximized="1"
     inkscape:current-layer="layer1" />
  <defs
     id="defs1452" />
  <g
     inkscape:label="Layer 1"
     inkscape:groupmode="layer"
     id="layer1">
    <path
       style="fill:#000000;stroke-width:0.352778"
       d="m 70.177343,71.859131 c -0.31861,-0.3834 -0.48417,-1.51757 -0.48417,-3.31687 v -2.73424 l -1.66302,-0.22138 c -1.79918,-0.23951 -2.7467,-1.12676 -2.7467,-2.57199 0,-1.16615 1.21091,-2.21458 2.55764,-2.21446 l 1.14653,1e-4 v -14.90496 -14.90496 l 1.63272,-0.10577 c 2.06334,-0.13367 3.53986,-1.34716 7.32589,-6.02088 3.17252,-3.91636 5.28584,-5.9314 6.55471,-6.24986 1.02752,-0.2579 1.01063,-0.19459 0.50357,-1.88702 -0.54875,-1.83156 0.22582,-3.58012 1.94791,-4.3973 1.66241,-0.78887 3.08357,-0.48845 4.25066,0.89855 0.96301,1.14449 1.22371,3.35421 0.4831,4.09483 -0.47462,0.47461 0.17609,1.49661 0.95289,1.49661 0.69884,0 3.2842,2.73592 6.12169,6.47815 2.544717,3.35613 4.613547,5.47556 5.428707,5.56149 0.23579,0.0249 0.98432,0.0645 1.66342,0.0882 l 1.23472,0.043 v 14.90503 14.90504 l 0.91546,-1.8e-4 c 1.17868,-2.2e-4 2.08461,1.01162 2.07775,2.32066 -0.008,1.56914 -0.49368,2.03293 -2.35127,2.24634 l -1.70027,0.19533 -0.17639,2.85817 c -0.20111,3.25873 -0.6358,4.021 -2.29305,4.021 -1.53759,0 -1.92584,-0.57151 -2.32027,-3.41549 -0.18348,-1.32294 -0.40618,-2.60378 -0.4949,-2.84632 -0.12501,-0.34175 -3.052457,-0.44097 -13.011017,-0.44097 -14.66396,0 -13.1121,-0.41679 -13.62388,3.65904 -0.16851,1.342 -0.5168,2.57341 -0.77399,2.73647 -0.7905,0.50117 -2.64768,0.33926 -3.15844,-0.27536 z m 2.04386,-3.65071 c 0.18385,-1.35819 0.27513,-2.46944 0.20285,-2.46944 -0.0723,0 -0.43849,0.16433 -0.81379,0.36518 -1.01102,0.54109 -0.98251,4.57371 0.0323,4.57371 0.13439,0 0.39476,-1.11125 0.57861,-2.46945 z m 26.92891,-4.93889 c 0,-0.19403 0.11907,-0.33398 0.26459,-0.311 0.640917,0.1012 1.146517,-0.0685 1.146517,-0.38474 0,-0.21841 -6.116017,-0.3145 -16.840247,-0.26459 -15.72195,0.0732 -16.84816,0.11938 -16.9592,0.69575 -0.11189,0.58075 0.84491,0.61736 16.1347,0.61736 10.60058,0 16.25364,-0.1227 16.25364,-0.35278 z m 8.757117,-0.47021 c 0.066,-0.34027 -0.11107,-0.58812 -0.42015,-0.58812 -0.65537,0 -1.05091,0.57508 -0.74074,1.07695 0.3191,0.51632 1.02347,0.21972 1.16089,-0.48883 z m -19.161797,-2.69767 c -0.12192,-0.38414 -0.072,-0.96589 0.11093,-1.29277 0.29021,-0.51858 0.4073,-0.46327 0.91858,0.43385 l 0.58597,1.02819 -0.13041,-1.14653 c -0.0717,-0.63059 -0.0212,-1.14653 0.11235,-1.14653 0.44279,0 -0.11576,-1.93264 -0.68625,-2.37454 -0.49509,-0.38349 -0.49877,-0.47536 -0.0315,-0.7857 0.68003,-0.45162 1.74593,-0.11509 2.47081,0.78009 0.53274,0.65791 0.63862,0.66829 1.62318,0.15915 1.02484,-0.52996 1.05284,-0.52241 1.03728,0.27973 -0.009,0.45342 -0.13074,0.93909 -0.27099,1.07926 -0.28862,0.28849 -0.0235,0.86201 0.39852,0.86201 0.15305,0 0.29243,-0.498 0.30973,-1.10666 0.0173,-0.60867 0.18781,-1.26301 0.3789,-1.4541 0.19109,-0.19109 0.25348,-0.59226 0.13866,-0.89148 -0.12743,-0.33207 -0.0626,-0.45372 0.16633,-0.31223 0.20851,0.12887 0.4636,-0.11959 0.57439,-0.55949 0.10962,-0.43522 0.55284,-0.95006 0.98495,-1.14409 0.43211,-0.19403 0.86112,-0.58807 0.95336,-0.87564 0.12701,-0.39597 0.0194,-0.37457 -0.44335,0.0882 -0.74556,0.74555 -1.39382,0.77828 -1.95772,0.0988 -0.53515,-0.64482 -0.23086,-1.65209 0.66882,-2.21395 0.58825,-0.36737 0.78513,-0.31211 1.32685,0.3724 0.34986,0.44209 0.89061,0.90049 1.20167,1.01867 0.65639,0.24939 1.028017,3.21849 0.895687,7.15595 -0.065,1.9347 -0.009,2.26477 0.25735,1.52425 0.28522,-0.79214 0.6163,-0.98315 2.0445,-1.17958 1.76428,-0.24265 2.37113,-0.63851 1.6562,-1.08036 -0.25796,-0.15943 -0.31853,-0.10236 -0.16132,0.15201 0.13843,0.22401 0.0836,0.40729 -0.1219,0.40729 -0.20547,0 -0.37359,-0.15875 -0.37359,-0.35278 0,-0.19403 -0.64555,-0.35278 -1.43455,-0.35278 -1.35683,0 -1.42849,-0.0525 -1.32291,-0.97014 0.0984,-0.85491 0.27922,-0.9837 1.52273,-1.08438 1.4026,-0.11356 2.65077,-0.87752 2.64044,-1.61613 -0.003,-0.21246 -0.15929,-0.14817 -0.34738,0.14287 -0.18809,0.29105 -0.34412,0.37042 -0.34675,0.17639 -0.002,-0.19402 -0.83483,-0.35277 -1.84933,-0.35277 h -1.84455 l -0.21731,-1.32356 c -0.254297,-1.5488 0.39294,-2.73339 1.49346,-2.73339 0.54466,0 0.66431,0.15248 0.48446,0.61736 -0.47102,1.21752 -0.62418,2.55764 -0.29232,2.55764 0.18595,0 0.35573,-0.19844 0.37729,-0.44097 0.0216,-0.24254 0.13485,-1.11778 0.25174,-1.945 0.28701,-2.0312 -0.57787,-2.43342 -1.89967,-0.88349 -0.50574,0.59302 -1.135917,0.99641 -1.400407,0.89642 -0.37405,-0.14142 -0.38361,-0.24194 -0.043,-0.45244 0.74672,-0.4615 -0.0189,-1.10796 -1.19251,-1.00685 -0.61379,0.0529 -1.31213,-0.0251 -1.55187,-0.17325 -0.57383,-0.35464 -1.13757,0.0173 -1.15694,0.76321 -0.008,0.32809 -0.22981,1.19733 -0.49177,1.93162 -0.35401,0.9923 -0.36525,1.24292 -0.0438,0.97612 0.29887,-0.24805 0.63371,-0.21186 1.08361,0.11711 0.6281,0.45928 0.62397,0.51054 -0.11714,1.45271 -0.42252,0.53714 -0.76822,0.87818 -0.76822,0.75785 0,-0.12033 -0.50123,0.086 -1.11385,0.45859 l -1.11384,0.67737 -0.65004,-0.82639 c -0.78651,-0.99989 -0.81166,-1.24428 -0.12805,-1.24428 0.62048,0 1.85671,-2.28539 2.01319,-3.72175 0.0806,-0.73977 -0.0571,-1.05006 -0.50672,-1.14227 -0.48932,-0.10034 -0.61763,0.11654 -0.61868,1.0458 -0.003,2.49235 -2.59871,4.67457 -4.08922,3.43756 -0.4609,-0.38251 -0.39024,-0.50346 0.51699,-0.88492 1.27693,-0.53691 2.25798,-1.94114 2.10146,-3.00792 -0.16648,-1.13458 -0.91932,-1.22263 -1.40169,-0.16393 -0.51989,1.14102 -1.00677,1.17268 -1.00677,0.0654 0,-0.46431 -0.23813,-0.93558 -0.52917,-1.04726 -0.60486,-0.23211 -0.71795,-1.83078 -0.15416,-2.17922 0.20626,-0.12747 0.68626,0.0499 1.06667,0.39418 0.7649,0.69222 1.63136,0.25283 1.28439,-0.65134 -0.14157,-0.36892 -0.73027,-0.46315 -2.31543,-0.3706 -1.25787,0.0734 -2.22042,-0.0293 -2.35786,-0.25169 -0.29958,-0.48473 -1.22777,0.24115 -1.22777,0.96016 0,0.3363 0.22312,0.43892 0.65574,0.30161 0.9315,-0.29564 1.70161,0.68023 1.10453,1.39966 -0.33678,0.4058 -0.55824,0.43768 -0.92514,0.13319 -0.3625,-0.30085 -0.61756,-0.28811 -1.02647,0.0512 -0.83311,0.69142 -1.53569,-0.13109 -0.93441,-1.0939 0.67528,-1.08129 0.27047,-1.32361 -2.15927,-1.29256 -1.22453,0.0157 -2.42205,-0.0924 -2.66115,-0.24023 -0.23911,-0.14777 -0.62622,-0.127 -0.86026,0.0462 -0.23403,0.17317 -0.82239,0.26756 -1.30746,0.20977 -2.9702,-0.35389 -2.99167,-0.34862 -3.11826,0.7658 -0.11941,1.05112 -0.11812,1.0519 0.62569,0.37875 0.84927,-0.76858 1.69099,-0.31691 1.3014,0.69834 -0.16631,0.4334 -0.46786,0.52973 -1.13452,0.36241 -0.72368,-0.18163 -0.9462,-0.0818 -1.09619,0.49174 -0.10396,0.39755 -0.48061,0.71965 -0.84153,0.71965 -0.43581,0 -0.58573,-0.17619 -0.45028,-0.52917 0.1485,-0.38698 -0.0441,-0.52917 -0.71662,-0.52917 h -0.91969 v 3.41181 c 0,2.67966 0.12529,3.55024 0.58384,4.05694 0.54327,0.60031 0.54327,0.64514 0,0.64514 -0.77951,0 -0.80417,2.70345 -0.0347,3.80206 0.5426,0.77468 0.65464,0.78405 9.37238,0.78405 8.6327,0 8.81843,-0.0151 8.60154,-0.69843 z m -6.88143,-1.77101 c 0,-0.79964 0.36584,-0.90416 0.98778,-0.28222 0.62195,0.62194 0.51742,0.98778 -0.28222,0.98778 -0.47037,0 -0.70556,-0.23519 -0.70556,-0.70556 z m 5.86965,-1.23472 c -0.11168,-0.29104 -0.0493,-0.52917 0.13865,-0.52917 0.18793,0 0.3417,0.23813 0.3417,0.52917 0,0.29104 -0.0624,0.52917 -0.13864,0.52917 -0.0763,0 -0.23002,-0.23813 -0.34171,-0.52917 z m 12.827567,-2.64583 c 0,-0.19403 0.80312,-0.35278 1.78471,-0.35278 1.09998,0 1.70106,0.13535 1.56668,0.35278 -0.11991,0.19403 -0.92303,0.35278 -1.78471,0.35278 -0.86167,0 -1.56668,-0.15875 -1.56668,-0.35278 z m -27.800657,-2.29306 c 0.007,-0.58208 0.0862,-0.7775 0.17569,-0.43426 0.0894,0.34325 0.0836,0.8195 -0.0131,1.05834 -0.0966,0.23884 -0.16981,-0.042 -0.16262,-0.62408 z m 5.57567,-2.14606 c 0,-0.62298 0.75944,-0.51449 0.97748,0.13964 0.0768,0.23041 -0.11171,0.41892 -0.41892,0.41892 -0.30721,0 -0.55856,-0.25135 -0.55856,-0.55856 z m -0.52917,-1.84103 c -1.11418,-0.21845 -1.24253,-0.53827 -0.57212,-1.42548 l 0.6245,-0.82646 0.56045,0.85535 c 0.653,0.99662 0.39112,1.59343 -0.61283,1.39659 z m 2.09588,-0.10349 c -0.24717,-0.39992 0.48624,-2.08303 0.90767,-2.08303 0.53122,0 1.47782,1.42112 1.28364,1.92714 -0.23842,0.6213 -1.83354,0.73477 -2.19131,0.15589 z m 15.54301,10.96975 c 0.11991,-0.19403 0.0499,-0.35278 -0.15557,-0.35278 -0.20548,0 -0.3736,0.15875 -0.3736,0.35278 0,0.19403 0.07,0.35278 0.15557,0.35278 0.0856,0 0.25368,-0.15875 0.3736,-0.35278 z m 3.19787,-2.27853 c 0.0969,-1.51045 0.0248,-2.26969 -0.20205,-2.12947 -0.19392,0.11985 -0.26005,0.58656 -0.14697,1.03713 0.11309,0.45058 0.05,1.38264 -0.14008,2.07126 -0.19014,0.68861 -0.25563,1.34211 -0.14553,1.45221 0.36876,0.36875 0.4832,-0.0696 0.63463,-2.43113 z m 6.150737,-4.07147 c 0,-0.19403 -0.15875,-0.35278 -0.35278,-0.35278 -0.19403,0 -0.35278,0.15875 -0.35278,0.35278 0,0.19403 0.15875,0.35278 0.35278,0.35278 0.19403,0 0.35278,-0.15875 0.35278,-0.35278 z m -0.3481,-2.83353 c 0.24369,-0.58831 0.34606,-1.16666 0.2275,-1.28522 -0.11856,-0.11856 -0.31027,0.085 -0.42602,0.45228 -0.11574,0.36732 -0.35895,0.94567 -0.54046,1.28522 -0.18517,0.34641 -0.19266,0.61736 -0.017,0.61736 0.17213,0 0.51235,-0.48134 0.75603,-1.06964 z m -32.014097,-3.48258 c 0.13736,-0.52529 -0.0459,-0.70417 -0.8408,-0.82085 -0.87159,-0.12792 -1.01644,-0.0322 -1.01644,0.67167 0,0.62967 0.19582,0.82084 0.8408,0.82084 0.52996,0 0.90573,-0.2483 1.01644,-0.67166 z m 20.46988,-0.0335 c 0.2143,-0.81949 -0.34718,-1.30752 -0.88526,-0.76944 -0.4067,0.4067 -0.13285,1.47464 0.37814,1.47464 0.17749,0 0.40569,-0.31734 0.50712,-0.7052 z m 2.32314,-0.41111 c -0.41177,-0.74711 -0.46703,-0.76209 -0.59246,-0.16068 -0.0761,0.36481 0.0711,0.79274 0.32713,0.95096 0.68455,0.42307 0.779,0.14174 0.26533,-0.79028 z m 3.21918,0.63035 c 0,-0.26728 -0.23813,-0.68359 -0.52917,-0.92514 -0.56099,-0.46558 -0.68853,-0.12021 -0.31503,0.85309 0.26342,0.68648 0.8442,0.73605 0.8442,0.072 z m 2.822217,-0.0224 c 0,-0.56184 -0.64007,-1.08585 -0.949,-0.77691 -0.29021,0.2902 0.16282,1.28525 0.58515,1.28525 0.20012,0 0.36385,-0.22876 0.36385,-0.50835 z m 3.76141,-0.63819 c -0.0979,-0.24253 -0.17793,-0.0441 -0.17793,0.44097 0,0.48507 0.0801,0.68351 0.17793,0.44098 0.0979,-0.24254 0.0979,-0.63941 0,-0.88195 z m -1.29197,0.26459 c 0,-0.29105 -0.15875,-0.52917 -0.35277,-0.52917 -0.19403,0 -0.35278,0.23812 -0.35278,0.52917 0,0.29104 0.15875,0.52916 0.35278,0.52916 0.19402,0 0.35277,-0.23812 0.35277,-0.52916 z m -32.460947,-3.77154 c 0.003,-0.3281 -0.15335,-0.69466 -0.34738,-0.81458 -0.2119,-0.13096 -0.35062,0.31857 -0.34737,1.12571 0.004,0.99749 0.0935,1.20738 0.34737,0.81457 0.18809,-0.29104 0.34441,-0.79761 0.34738,-1.1257 z m 1.76929,0.24376 c 0,-0.6791 -0.15875,-1.23472 -0.35278,-1.23472 -0.19403,0 -0.35278,0.55562 -0.35278,1.23472 0,0.6791 0.15875,1.23472 0.35278,1.23472 0.19403,0 0.35278,-0.55562 0.35278,-1.23472 z m 3.88055,0 c 0,-0.6791 -0.15874,-1.23472 -0.35277,-1.23472 -0.39119,0 -0.48922,1.86263 -0.1176,2.23425 0.40603,0.40603 0.47037,0.26931 0.47037,-0.99953 z m 2.46945,-0.19721 c 0,-0.68705 -0.17875,-1.03751 -0.52917,-1.03751 -0.53354,0 -0.77305,1.75519 -0.30357,2.22467 0.42693,0.42693 0.83274,-0.15159 0.83274,-1.18716 z m 2.11667,0 c 0,-0.68705 -0.17875,-1.03751 -0.52917,-1.03751 -0.53355,0 -0.77305,1.75519 -0.30357,2.22467 0.42693,0.42693 0.83274,-0.15159 0.83274,-1.18716 z m 2.11666,0.19721 c 0,-0.6791 -0.15875,-1.23472 -0.35278,-1.23472 -0.19402,0 -0.35277,0.55562 -0.35277,1.23472 0,0.6791 0.15875,1.23472 0.35277,1.23472 0.19403,0 0.35278,-0.55562 0.35278,-1.23472 z m 2.4036,-0.11536 c 0.0817,-0.82711 -0.0335,-1.11936 -0.44097,-1.11936 -0.39756,0 -0.55152,0.35287 -0.55152,1.26411 0,1.59396 0.83278,1.4725 0.99249,-0.14475 z m 2.11667,0 c 0.0817,-0.82711 -0.0334,-1.11936 -0.44097,-1.11936 -0.39757,0 -0.55152,0.35287 -0.55152,1.26411 0,1.59396 0.83277,1.4725 0.99249,-0.14475 z m 2.46944,0 c 0.0817,-0.82711 -0.0334,-1.11936 -0.44097,-1.11936 -0.39756,0 -0.55152,0.35287 -0.55152,1.26411 0,1.59396 0.83278,1.4725 0.99249,-0.14475 z m -15.80915,-0.061 c 0,-0.58209 -0.15875,-1.05834 -0.35278,-1.05834 -0.19403,0 -0.35278,0.47625 -0.35278,1.05834 0,0.58208 0.15875,1.05833 0.35278,1.05833 0.19403,0 0.35278,-0.47625 0.35278,-1.05833 z m 18.34444,0 c 0,-0.70556 -0.17639,-1.05834 -0.52917,-1.05834 -0.35277,0 -0.52916,0.35278 -0.52916,1.05834 0,0.70555 0.17639,1.05833 0.52916,1.05833 0.35278,0 0.52917,-0.35278 0.52917,-1.05833 z m 2.11667,0.19721 c 0,-1.17397 -0.58546,-1.45355 -0.7911,-0.37778 -0.16943,0.88632 -0.028,1.2389 0.49712,1.2389 0.16169,0 0.29398,-0.38751 0.29398,-0.86112 z m 4.23333,-0.21803 c 0,-0.37661 -0.15875,-0.68474 -0.35278,-0.68474 -0.19402,0 -0.35277,0.40625 -0.35277,0.90277 0,0.512 0.15269,0.80839 0.35277,0.68473 0.19403,-0.11992 0.35278,-0.52616 0.35278,-0.90276 z m 2.116667,0 c 0,-0.37661 -0.15875,-0.68474 -0.35278,-0.68474 -0.19403,0 -0.35278,0.40625 -0.35278,0.90277 0,0.512 0.1527,0.80839 0.35278,0.68473 0.19403,-0.11992 0.35278,-0.52616 0.35278,-0.90276 z m 2.11666,0 c 0,-0.37661 -0.15875,-0.68474 -0.35277,-0.68474 -0.19403,0 -0.35278,0.40625 -0.35278,0.90277 0,0.512 0.15269,0.80839 0.35278,0.68473 0.19402,-0.11992 0.35277,-0.52616 0.35277,-0.90276 z m 1.76389,0.37359 c 0,-0.19402 -0.07,-0.35277 -0.15557,-0.35277 -0.0856,0 -0.25368,0.15875 -0.37359,0.35277 -0.11992,0.19403 -0.0499,0.35278 0.15556,0.35278 0.20548,0 0.3736,-0.15875 0.3736,-0.35278 z m -8.225677,-0.7717 c -0.11261,-0.28142 -0.19621,-0.19783 -0.21313,0.21314 -0.0153,0.37188 0.0681,0.58025 0.18528,0.46302 0.11723,-0.11723 0.12976,-0.4215 0.0278,-0.67616 z m -26.3254,-3.64647 c -0.3096,-1.03757 -0.31363,-1.03354 -0.34359,0.34359 -0.0197,0.90415 0.0903,1.27282 0.31327,1.04988 0.21248,-0.21248 0.22405,-0.74423 0.0303,-1.39347 z m 2.09013,-0.0797 c 0.003,-0.43657 -0.15335,-0.79375 -0.34738,-0.79375 -0.19403,0 -0.35034,0.59531 -0.34737,1.32291 0.004,0.98403 0.093,1.18737 0.34737,0.79375 0.18809,-0.29104 0.34441,-0.88635 0.34738,-1.32291 z m 1.76929,0.44097 c 0,-0.6791 -0.15875,-1.23472 -0.35278,-1.23472 -0.39119,0 -0.48922,1.86263 -0.11759,2.23426 0.40603,0.40602 0.47037,0.2693 0.47037,-0.99954 z m 2.11666,0 c 0,-0.6791 -0.15874,-1.23472 -0.35277,-1.23472 -0.19403,0 -0.35278,0.55562 -0.35278,1.23472 0,0.6791 0.15875,1.23472 0.35278,1.23472 0.19403,0 0.35277,-0.55562 0.35277,-1.23472 z m 2.40361,-0.11536 c 0.0817,-0.82711 -0.0334,-1.11936 -0.44098,-1.11936 -0.39756,0 -0.55151,0.35287 -0.55151,1.26412 0,1.59395 0.83277,1.47249 0.99249,-0.14476 z m 2.18251,0.11536 c 0,-0.86235 -0.15959,-1.23472 -0.52917,-1.23472 -0.36958,0 -0.52917,0.37237 -0.52917,1.23472 0,0.86234 0.15959,1.23472 0.52917,1.23472 0.36958,0 0.52917,-0.37238 0.52917,-1.23472 z m 2.11666,0 c 0,-0.6791 -0.15875,-1.23472 -0.35278,-1.23472 -0.19402,0 -0.35277,0.55562 -0.35277,1.23472 0,0.6791 0.15875,1.23472 0.35277,1.23472 0.19403,0 0.35278,-0.55562 0.35278,-1.23472 z m 2.46945,0 c 0,-0.86235 -0.15959,-1.23472 -0.52917,-1.23472 -0.36958,0 -0.52917,0.37237 -0.52917,1.23472 0,0.86234 0.15959,1.23472 0.52917,1.23472 0.36958,0 0.52917,-0.37238 0.52917,-1.23472 z m 2.11666,0 c 0,-0.86235 -0.15959,-1.23472 -0.52916,-1.23472 -0.53952,0 -0.77076,1.75748 -0.29398,2.23426 0.52722,0.52722 0.82314,0.16787 0.82314,-0.99954 z m 2.46945,0 c 0,-0.86235 -0.15959,-1.23472 -0.52917,-1.23472 -0.36958,0 -0.52917,0.37237 -0.52917,1.23472 0,0.86234 0.15959,1.23472 0.52917,1.23472 0.36958,0 0.52917,-0.37238 0.52917,-1.23472 z m 2.46944,0 c 0,-0.86235 -0.15959,-1.23472 -0.52917,-1.23472 -0.36957,0 -0.52916,0.37237 -0.52916,1.23472 0,0.86234 0.15959,1.23472 0.52916,1.23472 0.36958,0 0.52917,-0.37238 0.52917,-1.23472 z m 2.11667,0 c 0,-0.6791 -0.15875,-1.23472 -0.35278,-1.23472 -0.19403,0 -0.35278,0.55562 -0.35278,1.23472 0,0.6791 0.15875,1.23472 0.35278,1.23472 0.19403,0 0.35278,-0.55562 0.35278,-1.23472 z m 2.11666,0.33196 c 0,-0.3025 -0.16133,-0.45028 -0.35853,-0.32841 -0.19719,0.12188 -0.2672,0.36937 -0.15556,0.54999 0.30241,0.48932 0.51409,0.39808 0.51409,-0.22158 z m 2.11667,0.21803 c 0,-0.18258 -0.13229,-0.41372 -0.29398,-0.51365 -0.16169,-0.0999 -0.29398,0.0495 -0.29398,0.33195 0,0.28251 0.13229,0.51365 0.29398,0.51365 0.16169,0 0.29398,-0.14938 0.29398,-0.33195 z m 2.111267,-0.10902 c -0.003,-0.24253 -0.15929,-0.6791 -0.34738,-0.97014 -0.26648,-0.41235 -0.34316,-0.31501 -0.34738,0.44097 -0.003,0.53358 0.15335,0.97014 0.34738,0.97014 0.19403,0 0.35035,-0.19843 0.34738,-0.44097 z m 2.12206,-0.42015 c 0,-0.47362 -0.15875,-0.95924 -0.35277,-1.07915 -0.20582,-0.12721 -0.35278,0.23152 -0.35278,0.86112 0,0.59353 0.15875,1.07915 0.35278,1.07915 0.19402,0 0.35277,-0.3875 0.35277,-0.86112 z m -32.766527,-4.32732 c 0.0582,-0.81635 -0.007,-1.59687 -0.14436,-1.73449 -0.13762,-0.13762 -0.25021,0.59645 -0.25021,1.63127 0,2.19264 0.24107,2.2557 0.39457,0.10322 z m 2.07487,-0.30043 c 0,-0.86168 -0.15875,-1.56668 -0.35278,-1.56668 -0.19403,0 -0.35278,0.80312 -0.35278,1.78471 0,1.09997 0.13535,1.70105 0.35278,1.56668 0.19403,-0.11992 0.35278,-0.92304 0.35278,-1.78471 z m 2.05254,-0.0209 c -0.0617,-0.75318 -0.27101,-1.36941 -0.46504,-1.36941 -0.41211,0 -0.67656,2.10566 -0.36607,2.9148 0.37745,0.98362 0.951,-0.0829 0.83111,-1.54539 z m 2.0044,0.27689 c 0,-2.06524 -0.68238,-2.01017 -0.81456,0.0657 -0.082,1.2884 0.005,1.67394 0.35278,1.5581 0.28201,-0.094 0.46178,-0.72616 0.46178,-1.62384 z m 2.29306,0.11759 c 0,-1.17593 -0.13719,-1.5875 -0.52917,-1.5875 -0.39197,0 -0.52916,0.41157 -0.52916,1.5875 0,1.17593 0.13719,1.5875 0.52916,1.5875 0.39198,0 0.52917,-0.41157 0.52917,-1.5875 z m 2.11667,0 c 0,-1.17593 -0.1372,-1.5875 -0.52917,-1.5875 -0.39198,0 -0.52917,0.41157 -0.52917,1.5875 0,1.17593 0.13719,1.5875 0.52917,1.5875 0.39197,0 0.52917,-0.41157 0.52917,-1.5875 z m 2.11666,0 c 0,-0.87313 -0.15875,-1.5875 -0.35278,-1.5875 -0.19402,0 -0.35277,0.71437 -0.35277,1.5875 0,0.87312 0.15875,1.5875 0.35277,1.5875 0.19403,0 0.35278,-0.71438 0.35278,-1.5875 z m 2.46945,0 c 0,-1.17593 -0.13719,-1.5875 -0.52917,-1.5875 -0.39198,0 -0.52917,0.41157 -0.52917,1.5875 0,1.17593 0.13719,1.5875 0.52917,1.5875 0.39198,0 0.52917,-0.41157 0.52917,-1.5875 z m 2.11666,0 c 0,-1.17593 -0.13719,-1.5875 -0.52916,-1.5875 -0.39198,0 -0.52917,0.41157 -0.52917,1.5875 0,1.17593 0.13719,1.5875 0.52917,1.5875 0.39197,0 0.52916,-0.41157 0.52916,-1.5875 z m 2.46945,0 c 0,-1.17593 -0.13719,-1.5875 -0.52917,-1.5875 -0.39197,0 -0.52917,0.41157 -0.52917,1.5875 0,1.17593 0.1372,1.5875 0.52917,1.5875 0.39198,0 0.52917,-0.41157 0.52917,-1.5875 z m 2.46944,0 c 0,-1.17593 -0.13719,-1.5875 -0.52917,-1.5875 -0.39197,0 -0.52916,0.41157 -0.52916,1.5875 0,1.17593 0.13719,1.5875 0.52916,1.5875 0.39198,0 0.52917,-0.41157 0.52917,-1.5875 z m 2.11667,0 c 0,-1.22683 -0.12957,-1.5875 -0.57031,-1.5875 -0.41928,0 -0.51398,0.21021 -0.3576,0.79375 0.117,0.43656 0.21489,1.15094 0.21754,1.5875 0.003,0.43656 0.16356,0.79375 0.35759,0.79375 0.19403,0 0.35278,-0.71438 0.35278,-1.5875 z m 5.893407,-0.61736 c -0.0841,-0.43656 -0.15289,-0.0794 -0.15289,0.79375 0,0.87312 0.0688,1.23031 0.15289,0.79375 0.0841,-0.43656 0.0841,-1.15094 0,-1.5875 z m 3.88109,0.004 c -0.0844,-0.43883 -0.15662,-0.16286 -0.16054,0.61325 -0.004,0.77611 0.0651,1.13515 0.15342,0.79786 0.0883,-0.33729 0.0915,-0.97229 0.007,-1.41111 z m -6.003537,-0.1805 c -0.0887,-0.33955 -0.16134,-0.0617 -0.16134,0.61736 0,0.67909 0.0726,0.95691 0.16134,0.61736 0.0887,-0.33955 0.0887,-0.89517 0,-1.23472 z m -1.97396,-0.11659 c -0.32057,-0.80202 -0.34252,-0.78007 -0.36353,0.36353 -0.0153,0.83539 0.0916,1.10308 0.34117,0.85355 0.24072,-0.24072 0.24827,-0.65188 0.0224,-1.21708 z m 6.208577,0.1233 c -0.0894,-0.34324 -0.16851,-0.14782 -0.1757,0.43426 -0.007,0.58208 0.066,0.86292 0.16263,0.62407 0.0966,-0.23884 0.10251,-0.71509 0.0131,-1.05833 z m -21.763907,-3.49024 c 0,-0.2923 0.55692,-1.73685 1.2376,-3.21009 0.68068,-1.47325 1.17622,-2.74002 1.10119,-2.81504 -0.39097,-0.39097 -3.51911,6.11546 -3.19349,6.64234 0.27508,0.44507 0.8547,0.0265 0.8547,-0.61721 z m 2.93868,-2.76941 c 0.49545,-1.74137 0.83998,-3.22696 0.76562,-3.30132 -0.3478,-0.34781 -2.72382,6.23248 -2.425,6.71597 0.36727,0.59426 0.73276,-0.15786 1.65938,-3.41465 z m 1.87319,-0.0373 c 0.22436,-1.92464 0.35553,-3.55469 0.29147,-3.62233 -0.22722,-0.23997 -1.26876,3.67971 -1.47482,5.55033 -0.16874,1.53177 -0.11393,1.86779 0.28308,1.73546 0.33733,-0.11245 0.62077,-1.26585 0.90027,-3.66346 z m 1.86854,-0.60974 c -0.0132,-2.32247 -0.13739,-3.65744 -0.30174,-3.24238 -0.37931,0.95795 -0.80764,7.04094 -0.51629,7.33229 0.62006,0.62007 0.83852,-0.47217 0.81803,-4.08991 z m 2.1985,2.32199 c -0.0643,-0.97745 -0.32456,-2.62931 -0.57835,-3.67078 l -0.46143,-1.89359 -0.039,2.15563 c -0.0214,1.18559 0.0627,2.89792 0.18709,3.80518 0.30878,2.25289 1.04447,1.92581 0.8917,-0.39644 z m -10.09213,-0.71367 c 0.72433,-1.30969 1.7239,-3.09563 2.22127,-3.96875 1.60082,-2.81021 -0.16731,-0.85096 -2.06034,2.28303 -2.00427,3.31817 -2.34268,4.06697 -1.83804,4.06697 0.19809,0 0.95279,-1.07157 1.67711,-2.38125 z m 12.5021,2.0849 c 0,-0.64844 -1.43764,-5.86852 -1.6841,-6.11498 -0.14481,-0.14481 -0.0243,1.2385 0.26774,3.07402 0.34359,2.15934 0.68728,3.33731 0.9737,3.33731 0.24346,0 0.44266,-0.13336 0.44266,-0.29635 z m 1.99616,-0.21441 c -0.10779,-0.28091 -0.62315,-1.71399 -1.14524,-3.18463 -0.52209,-1.47063 -1.01659,-2.60653 -1.0989,-2.52422 -0.27891,0.27891 1.69919,6.21961 2.07096,6.21961 0.20305,0 0.28098,-0.22984 0.17318,-0.51076 z m 2.00614,-0.0336 c -0.1149,-0.29941 -0.28457,-0.46872 -0.37704,-0.37624 -0.0925,0.0925 -0.0635,0.33744 0.0644,0.54438 0.34786,0.56284 0.55118,0.4535 0.31264,-0.16814 z m -18.08173,-1.98424 c 0.53564,-1.00087 0.18823,-0.76552 -0.73832,0.50015 -0.51938,0.70948 -0.60457,0.95587 -0.22347,0.64638 0.33872,-0.27509 0.77152,-0.79102 0.96179,-1.14653 z m 3.14332,-5.01465 c 0,-0.45838 -1.65555,1.11167 -2.56023,2.428 -0.55894,0.81327 -0.34673,0.69415 0.91643,-0.51442 0.90409,-0.86502 1.6438,-1.72613 1.6438,-1.91358 z m 7.31617,-2.90859 c 1.18503,-0.31761 0.59046,-0.83702 -0.95813,-0.83702 -1.54341,0 -2.47748,0.28024 -2.47748,0.7433 0,0.35522 2.23271,0.41612 3.43561,0.0937 z m -0.52519,-2.14432 c -0.43657,-0.0841 -1.15094,-0.0841 -1.5875,0 -0.43657,0.0841 -0.0794,0.15288 0.79375,0.15288 0.87312,0 1.23031,-0.0688 0.79375,-0.15288 z m 2.02847,-2.53796 c 0,-1.16133 -1.04491,-2.15196 -2.26987,-2.15196 -1.40678,0 -2.05463,0.67483 -1.90076,1.97993 0.15449,1.31041 0.91601,1.4873 1.05837,0.24584 0.0908,-0.79163 0.29111,-0.99105 0.99559,-0.99105 0.69131,0 0.8935,0.19064 0.93538,0.88194 0.0294,0.48507 0.0691,1.02045 0.0882,1.18973 0.0612,0.54204 1.0931,-0.54773 1.0931,-1.15443 z"
       id="path1572" />
  </g>
</svg>
